<svg width="963" height="198" viewBox="0 0 963 198" fill="none" xmlns="http://www.w3.org/2000/svg">
    <path d="M7.5 36.5005V130.5L8.5 83H62.5V36.5005L63.5 130.5M106.5 40V44.5M106 69C106.5 93.5 96.8333 117.5 84.5 126.5C97 118.5 105 97 106.5 73.5C97 142 124 125 129.5 122M146.5 92.5C148.5 76.5 165 71 176.5 85.5C181.5 91.8043 200.5 92.5 203.5 73.5M266.5 42.5L314 42L290.5 43V124.5L267 125H314M335 35.5005C352 53.5005 341.5 64 332.5 75.5M360.5 93.5C371 68 397 64.5 393 93.5L393.5 131L394 93.5C404 65 430.5 65.5 430.5 93.5L431 131L431.5 92C443 61.5 468 68 466.5 93.5C464.029 135.5 482 127 491 122M583 83C560.5 58.5 538 80.5 539.5 100C542.559 139.764 570.5 125 583 114.5L585 21.5004L584 114C587 136.5 618 121 633.5 110C658.864 92 641.833 74 633.5 73.5C611.5 72.18 610 112 627.5 123C647.5 135.571 690.177 112.535 701.5 72C726.5 -17.5 669.848 -9.65264 676 72C681.5 145 707 128.167 730.5 110C752 146 783.478 114.712 777.5 94.5C767 59 717 75.5 730 108.5M753.5 73.5C759.5 94 776.5 83.3333 790 78C808 67.5 813.5 81 813 92.5V130.874L814 93C832 60.5 855.5 74 854.676 93V109.5C854.676 132.5 882 129.5 887.5 113C885.5 78.5 915 62 932 81C912 61 885 83 888.5 113C890.542 130.5 921.5 131.5 933 115L934 68V173.5C934 199 903.31 191.637 903 175.5C902.5 149.5 934.333 132.333 955 119.5"
          stroke="url(#paint0_linear_5_3)" stroke-width="15" stroke-linecap="round" stroke-linejoin="round"/>
    <defs>
        <linearGradient id="paint0_linear_5_3" x1="7.5" y1="46.2889" x2="955" y2="151.673"
                        gradientUnits="userSpaceOnUse">
            <stop stop-color="#D43F8D"/>
            <stop offset="1" stop-color="#FFCF58"/>
        </linearGradient>
    </defs>
    <animate attributeName="stroke-dasharray" from="0 2500" to="2500 0" dur="15s"/>
</svg>